# xmcd CD database file
#
# Track frame offsets:
#	150
#	28505
#	49392
#	64710
#	93985
#	115125
#	135575
#	162884
#	180185
#	210411
#	236818
#	257888
#	276058
#	300253
#
# Disc length: 4207 seconds
#
# Revision: 0
# Processed by: cddbd v1.5.2PL0 Copyright (c) Steve Scherf et al.
# Submitted via: CDex 1.70beta2
#
DISCID=b5106d0e
DTITLE=かなさし康子 - Alone Together
DYEAR=2006
DGENRE=Jazz
TTITLE0=Alone Together
TTITLE1=Scarborough Fair
TTITLE2=Well You Needn't
TTITLE3=Beautiful Love
TTITLE4=Lazy Afternoon
TTITLE5=Summertime
TTITLE6=The Peacocks
TTITLE7=Lonely Woman
TTITLE8='Round Midnight
TTITLE9=African Flower
TTITLE10=Caravan
TTITLE11=Wild Is The Wind
TTITLE12=Oblivion
TTITLE13=Crystal Silence
EXTD=YEAR: 2006
EXTT0=
EXTT1=
EXTT2=
EXTT3=
EXTT4=
EXTT5=
EXTT6=
EXTT7=
EXTT8=
EXTT9=
EXTT10=
EXTT11=
EXTT12=
EXTT13=
PLAYORDER=
